<svg width="500" height="500" viewBox="0 0 500 500" fill="none" xmlns="http://www.w3.org/2000/svg">
<path opacity="0.4" d="M401.26 59.7967L309.177 29.1717C290.01 22.7133 270.635 25.005 256.469 35.4217C242.094 45.8383 233.969 63.3383 233.969 83.5467V162.088L377.302 209.797C384.385 212.297 391.677 213.338 398.552 213.338C410.219 213.338 421.052 210.005 430.01 203.547C444.385 193.13 452.51 175.63 452.51 155.422V130.838C452.51 101.047 429.594 69.1717 401.26 59.7967Z" fill="#4A5066"/>
<path d="M265.014 172.292V375C265.014 429.583 220.639 473.958 166.056 473.958C111.473 473.958 67.0977 429.583 67.0977 375C67.0977 320.416 111.473 276.041 166.056 276.041C192.306 276.041 216.056 286.458 233.764 303.125V161.875L265.014 172.292Z" fill="#4A5066"/>
</svg>
